<svg width="14" height="14" viewBox="0 0 14 14" fill="none" xmlns="http://www.w3.org/2000/svg">
<path d="M2.41402 10.8692C3.76844 10.1036 5.3332 9.66667 7 9.66667C8.6668 9.66667 10.2316 10.1036 11.586 10.8692M9 5.66667C9 6.77124 8.10457 7.66667 7 7.66667C5.89543 7.66667 5 6.77124 5 5.66667C5 4.5621 5.89543 3.66667 7 3.66667C8.10457 3.66667 9 4.5621 9 5.66667ZM13 7C13 10.3137 10.3137 13 7 13C3.68629 13 1 10.3137 1 7C1 3.68629 3.68629 1 7 1C10.3137 1 13 3.68629 13 7Z" stroke="#6B7280" stroke-width="1.33333" stroke-linecap="round" stroke-linejoin="round"/>
</svg>
